<mxfile host="Electron" modified="2023-08-18T07:19:07.307Z" agent="Mozilla/5.0 (Windows NT 10.0; Win64; x64) AppleWebKit/537.36 (KHTML, like Gecko) draw.io/21.6.8 Chrome/114.0.5735.289 Electron/25.5.0 Safari/537.36" etag="yUe-tXvgvvTadZrQsrg6" version="21.6.8" type="device">
  <diagram id="A_fOEjZe707A1BG43sQm" name="Page-1">
    <mxGraphModel dx="869" dy="656" grid="1" gridSize="10" guides="1" tooltips="1" connect="1" arrows="1" fold="1" page="1" pageScale="1" pageWidth="850" pageHeight="1100" math="0" shadow="0">
      <root>
        <mxCell id="0" />
        <mxCell id="1" parent="0" />
        <mxCell id="t0swImWHksQTD2aHZrki-1" value="&lt;h1&gt;&lt;span style=&quot;background-color: initial;&quot;&gt;Project: Pantry App&lt;/span&gt;&lt;/h1&gt;&lt;h1&gt;&lt;span style=&quot;background-color: initial; font-size: 12px; font-weight: normal;&quot;&gt;Simple app to help me create a simple inventory and track the quatitiy of stuff I have. Can also help generate shopping lists. Should a desktop app (first), web app, and mobile app.&lt;/span&gt;&lt;/h1&gt;&lt;h1&gt;&lt;span style=&quot;background-color: initial; font-size: 12px; font-weight: normal;&quot;&gt;&amp;nbsp;&lt;/span&gt;&lt;br&gt;&lt;/h1&gt;" style="text;html=1;strokeColor=none;fillColor=none;spacing=5;spacingTop=-20;whiteSpace=wrap;overflow=hidden;rounded=0;" parent="1" vertex="1">
          <mxGeometry x="50" y="70" width="330" height="260" as="geometry" />
        </mxCell>
        <mxCell id="r-5ijwlsUUhgzBU9VKNX-1" value="gui window" style="rounded=1;whiteSpace=wrap;html=1;" vertex="1" parent="1">
          <mxGeometry x="90" y="470" width="690" height="60" as="geometry" />
        </mxCell>
        <mxCell id="r-5ijwlsUUhgzBU9VKNX-2" value="sections avaiable&amp;nbsp;" style="rounded=1;whiteSpace=wrap;html=1;" vertex="1" parent="1">
          <mxGeometry x="100" y="390" width="220" height="60" as="geometry" />
        </mxCell>
        <mxCell id="r-5ijwlsUUhgzBU9VKNX-4" value="section item" style="rounded=1;whiteSpace=wrap;html=1;" vertex="1" parent="1">
          <mxGeometry x="120" y="320" width="180" height="60" as="geometry" />
        </mxCell>
        <mxCell id="r-5ijwlsUUhgzBU9VKNX-5" value="item quantity 0-... or low" style="rounded=1;whiteSpace=wrap;html=1;" vertex="1" parent="1">
          <mxGeometry x="150" y="250" width="120" height="60" as="geometry" />
        </mxCell>
        <mxCell id="r-5ijwlsUUhgzBU9VKNX-6" value="list generated on items 0 or low" style="rounded=1;whiteSpace=wrap;html=1;" vertex="1" parent="1">
          <mxGeometry x="360" y="390" width="220" height="60" as="geometry" />
        </mxCell>
      </root>
    </mxGraphModel>
  </diagram>
</mxfile>
